<svg width="16" height="17" viewBox="0 0 16 17" fill="none" xmlns="http://www.w3.org/2000/svg">
<path d="M8.78 10.524C8.6863 10.6408 8.56756 10.7351 8.43256 10.7998C8.29756 10.8646 8.14973 10.8982 8 10.8982C7.85026 10.8982 7.70244 10.8646 7.56744 10.7998C7.43243 10.7351 7.3137 10.6408 7.22 10.524L5.3 8.124C5.18258 7.97696 5.10903 7.79977 5.0878 7.6128C5.06658 7.42584 5.09853 7.23667 5.18 7.06705C5.26147 6.89743 5.38914 6.75424 5.54835 6.65393C5.70755 6.55362 5.89183 6.50027 6.08 6.5H9.92C10.1083 6.50012 10.2928 6.55342 10.4522 6.65378C10.6116 6.75414 10.7394 6.89747 10.8209 7.06727C10.9024 7.23707 10.9343 7.42643 10.9129 7.61356C10.8915 7.80069 10.8177 7.97797 10.7 8.125L8.78 10.524Z" fill="white"/>
</svg>
