<svg width="40" height="40" viewBox="0 0 40 40" fill="none" xmlns="http://www.w3.org/2000/svg">
<g clip-path="url(#clip0_403_4175)">
<path fill-rule="evenodd" clip-rule="evenodd" d="M27.707 26.29L24.598 23.2H24.588C25.5029 21.9909 25.998 20.5162 25.998 19C25.998 15.14 22.858 12 18.998 12C15.14 12 12 15.14 12 19C12 22.86 15.14 26 18.999 26C20.579 26 22.029 25.47 23.199 24.59V24.6L26.288 27.71C26.488 27.91 26.738 28 26.998 28C27.258 28 27.508 27.9 27.708 27.71C28.098 27.32 28.098 26.68 27.708 26.29H27.707ZM19 24C16.24 24 14 21.76 14 19C14 16.24 16.24 14 19 14C21.76 14 24 16.24 24 19C24 21.76 21.76 24 19 24Z" fill="white" fill-opacity="0.3"/>
</g>
<defs>
<clipPath id="clip0_403_4175">
<rect width="16" height="16" fill="white" transform="translate(12 12)"/>
</clipPath>
</defs>
</svg>
