<svg width="55" height="56" viewBox="0 0 55 56" fill="none" xmlns="http://www.w3.org/2000/svg">
<path d="M19.9548 51.925C19.603 51.7765 19.3107 51.5152 19.124 51.1822C18.9373 50.8492 18.8667 50.4635 18.9235 50.0859L22.0516 29.7188H13.7501C13.4869 29.7258 13.2256 29.6724 12.9864 29.5625C12.7471 29.4525 12.5363 29.2891 12.3702 29.0849C12.2042 28.8806 12.0872 28.6409 12.0285 28.3842C11.9697 28.1276 11.9707 27.8609 12.0313 27.6047L17.1876 5.26094C17.2783 4.87641 17.4988 4.53487 17.8118 4.29382C18.1248 4.05278 18.5114 3.92695 18.9063 3.9375H36.0938C36.3506 3.93663 36.6043 3.9933 36.8363 4.10335C37.0683 4.2134 37.2727 4.37403 37.4345 4.57344C37.5985 4.7751 37.7147 5.01135 37.7742 5.26441C37.8338 5.51746 37.8351 5.78072 37.7782 6.03438L34.8048 19.4063H42.9688C43.291 19.4056 43.6068 19.4955 43.8803 19.6657C44.1538 19.8359 44.374 20.0795 44.5157 20.3688C44.6389 20.6464 44.6863 20.9517 44.6531 21.2536C44.6198 21.5555 44.5072 21.8433 44.3266 22.0875L21.9829 51.3063C21.8319 51.5301 21.6303 51.7152 21.3944 51.8466C21.1584 51.978 20.8949 52.052 20.6251 52.0625C20.3951 52.0582 20.1679 52.0116 19.9548 51.925Z" fill="black"/>
</svg>
